<mxfile host="app.diagrams.net" modified="2024-02-27T06:24:47.599Z" agent="Mozilla/5.0 (Macintosh; Intel Mac OS X 10_15_7) AppleWebKit/537.36 (KHTML, like Gecko) Chrome/121.0.0.0 Safari/537.36" etag="zJlQBSSVxgsomAqVAs-8" version="23.1.7" type="device">
  <diagram name="Page-1" id="zG2IoxnAaMKdg4yOaZnz">
    <mxGraphModel dx="1514" dy="845" grid="1" gridSize="10" guides="1" tooltips="1" connect="1" arrows="1" fold="1" page="1" pageScale="1" pageWidth="827" pageHeight="1169" math="0" shadow="0">
      <root>
        <mxCell id="0" />
        <mxCell id="1" parent="0" />
        <mxCell id="ATrVyQSUXd0NA1j_21Cg-8" style="edgeStyle=orthogonalEdgeStyle;rounded=0;orthogonalLoop=1;jettySize=auto;html=1;" edge="1" parent="1" source="ATrVyQSUXd0NA1j_21Cg-1" target="ATrVyQSUXd0NA1j_21Cg-7">
          <mxGeometry relative="1" as="geometry" />
        </mxCell>
        <mxCell id="ATrVyQSUXd0NA1j_21Cg-1" value="Electronic health records" style="shape=mxgraph.signs.healthcare.medical_records;html=1;pointerEvents=1;fillColor=#000000;strokeColor=none;verticalLabelPosition=bottom;verticalAlign=top;align=center;" vertex="1" parent="1">
          <mxGeometry x="60" y="90" width="50" height="40" as="geometry" />
        </mxCell>
        <mxCell id="ATrVyQSUXd0NA1j_21Cg-9" style="edgeStyle=orthogonalEdgeStyle;rounded=0;orthogonalLoop=1;jettySize=auto;html=1;entryX=0.25;entryY=1;entryDx=0;entryDy=0;" edge="1" parent="1" source="ATrVyQSUXd0NA1j_21Cg-2" target="ATrVyQSUXd0NA1j_21Cg-7">
          <mxGeometry relative="1" as="geometry" />
        </mxCell>
        <mxCell id="ATrVyQSUXd0NA1j_21Cg-2" value="Mmedical imaging" style="sketch=0;points=[[0,0,0],[0.25,0,0],[0.5,0,0],[0.75,0,0],[1,0,0],[0,1,0],[0.25,1,0],[0.5,1,0],[0.75,1,0],[1,1,0],[0,0.25,0],[0,0.5,0],[0,0.75,0],[1,0.25,0],[1,0.5,0],[1,0.75,0]];outlineConnect=0;fontColor=#232F3E;fillColor=#C925D1;strokeColor=#ffffff;dashed=0;verticalLabelPosition=bottom;verticalAlign=top;align=center;html=1;fontSize=12;fontStyle=0;aspect=fixed;shape=mxgraph.aws4.resourceIcon;resIcon=mxgraph.aws4.xray;" vertex="1" parent="1">
          <mxGeometry x="60" y="190" width="50" height="50" as="geometry" />
        </mxCell>
        <mxCell id="ATrVyQSUXd0NA1j_21Cg-10" style="edgeStyle=orthogonalEdgeStyle;rounded=0;orthogonalLoop=1;jettySize=auto;html=1;" edge="1" parent="1" source="ATrVyQSUXd0NA1j_21Cg-3">
          <mxGeometry relative="1" as="geometry">
            <mxPoint x="210" y="290" as="targetPoint" />
          </mxGeometry>
        </mxCell>
        <mxCell id="ATrVyQSUXd0NA1j_21Cg-3" value="Genomics" style="image;aspect=fixed;html=1;points=[];align=center;fontSize=12;image=img/lib/azure2/ai_machine_learning/Genomics.svg;" vertex="1" parent="1">
          <mxGeometry x="67" y="290" width="36" height="68" as="geometry" />
        </mxCell>
        <mxCell id="ATrVyQSUXd0NA1j_21Cg-11" style="edgeStyle=orthogonalEdgeStyle;rounded=0;orthogonalLoop=1;jettySize=auto;html=1;entryX=0.25;entryY=1;entryDx=0;entryDy=0;" edge="1" parent="1" source="ATrVyQSUXd0NA1j_21Cg-4" target="ATrVyQSUXd0NA1j_21Cg-7">
          <mxGeometry relative="1" as="geometry" />
        </mxCell>
        <mxCell id="ATrVyQSUXd0NA1j_21Cg-4" value="Wearable" style="shape=image;html=1;verticalAlign=top;verticalLabelPosition=bottom;labelBackgroundColor=#ffffff;imageAspect=0;aspect=fixed;image=https://cdn4.iconfinder.com/data/icons/essentials-72/24/043_-_Smart_Watch-128.png" vertex="1" parent="1">
          <mxGeometry x="50" y="410" width="70" height="70" as="geometry" />
        </mxCell>
        <mxCell id="ATrVyQSUXd0NA1j_21Cg-5" value="Azure Data Lake Storage" style="image;aspect=fixed;html=1;points=[];align=center;fontSize=12;image=img/lib/azure2/storage/Data_Lake_Storage_Gen1.svg;" vertex="1" parent="1">
          <mxGeometry x="258" y="180" width="64" height="52" as="geometry" />
        </mxCell>
        <mxCell id="ATrVyQSUXd0NA1j_21Cg-18" style="edgeStyle=orthogonalEdgeStyle;rounded=0;orthogonalLoop=1;jettySize=auto;html=1;" edge="1" parent="1" source="ATrVyQSUXd0NA1j_21Cg-6" target="ATrVyQSUXd0NA1j_21Cg-12">
          <mxGeometry relative="1" as="geometry" />
        </mxCell>
        <mxCell id="ATrVyQSUXd0NA1j_21Cg-21" value="train machine &lt;br&gt;learning models" style="edgeLabel;html=1;align=center;verticalAlign=middle;resizable=0;points=[];" vertex="1" connectable="0" parent="ATrVyQSUXd0NA1j_21Cg-18">
          <mxGeometry x="-0.1069" y="-1" relative="1" as="geometry">
            <mxPoint y="1" as="offset" />
          </mxGeometry>
        </mxCell>
        <mxCell id="ATrVyQSUXd0NA1j_21Cg-32" style="edgeStyle=orthogonalEdgeStyle;rounded=0;orthogonalLoop=1;jettySize=auto;html=1;dashed=1;" edge="1" parent="1" source="ATrVyQSUXd0NA1j_21Cg-6" target="ATrVyQSUXd0NA1j_21Cg-28">
          <mxGeometry relative="1" as="geometry">
            <Array as="points">
              <mxPoint x="480" y="90" />
              <mxPoint x="1100" y="90" />
              <mxPoint x="1100" y="585" />
            </Array>
          </mxGeometry>
        </mxCell>
        <mxCell id="ATrVyQSUXd0NA1j_21Cg-6" value="Azure Synapse Analytics" style="image;aspect=fixed;html=1;points=[];align=center;fontSize=12;image=img/lib/azure2/analytics/Azure_Synapse_Analytics.svg;" vertex="1" parent="1">
          <mxGeometry x="450" y="150" width="60" height="69" as="geometry" />
        </mxCell>
        <mxCell id="ATrVyQSUXd0NA1j_21Cg-15" value="" style="edgeStyle=orthogonalEdgeStyle;rounded=0;orthogonalLoop=1;jettySize=auto;html=1;" edge="1" parent="1" source="ATrVyQSUXd0NA1j_21Cg-7" target="ATrVyQSUXd0NA1j_21Cg-6">
          <mxGeometry relative="1" as="geometry" />
        </mxCell>
        <mxCell id="ATrVyQSUXd0NA1j_21Cg-17" style="edgeStyle=orthogonalEdgeStyle;rounded=0;orthogonalLoop=1;jettySize=auto;html=1;" edge="1" parent="1" source="ATrVyQSUXd0NA1j_21Cg-7" target="ATrVyQSUXd0NA1j_21Cg-16">
          <mxGeometry relative="1" as="geometry" />
        </mxCell>
        <mxCell id="ATrVyQSUXd0NA1j_21Cg-30" style="edgeStyle=orthogonalEdgeStyle;rounded=0;orthogonalLoop=1;jettySize=auto;html=1;dashed=1;" edge="1" parent="1" source="ATrVyQSUXd0NA1j_21Cg-7" target="ATrVyQSUXd0NA1j_21Cg-28">
          <mxGeometry relative="1" as="geometry">
            <Array as="points">
              <mxPoint x="290" y="480" />
              <mxPoint x="545" y="480" />
            </Array>
          </mxGeometry>
        </mxCell>
        <mxCell id="ATrVyQSUXd0NA1j_21Cg-7" value="" style="rounded=1;whiteSpace=wrap;html=1;fillColor=none;strokeWidth=4;rotation=90;" vertex="1" parent="1">
          <mxGeometry x="170" y="208" width="240" height="160" as="geometry" />
        </mxCell>
        <mxCell id="ATrVyQSUXd0NA1j_21Cg-23" style="edgeStyle=orthogonalEdgeStyle;rounded=0;orthogonalLoop=1;jettySize=auto;html=1;" edge="1" parent="1" source="ATrVyQSUXd0NA1j_21Cg-12" target="ATrVyQSUXd0NA1j_21Cg-22">
          <mxGeometry relative="1" as="geometry" />
        </mxCell>
        <mxCell id="ATrVyQSUXd0NA1j_21Cg-26" style="edgeStyle=orthogonalEdgeStyle;rounded=0;orthogonalLoop=1;jettySize=auto;html=1;" edge="1" parent="1" source="ATrVyQSUXd0NA1j_21Cg-12" target="ATrVyQSUXd0NA1j_21Cg-24">
          <mxGeometry relative="1" as="geometry" />
        </mxCell>
        <mxCell id="ATrVyQSUXd0NA1j_21Cg-27" value="Intelligent interactions, voice recognition, image analysis, &lt;br&gt;and natural language processing capabilities for clinicians and patients" style="edgeLabel;html=1;align=center;verticalAlign=middle;resizable=0;points=[];" vertex="1" connectable="0" parent="ATrVyQSUXd0NA1j_21Cg-26">
          <mxGeometry x="0.7295" relative="1" as="geometry">
            <mxPoint as="offset" />
          </mxGeometry>
        </mxCell>
        <mxCell id="ATrVyQSUXd0NA1j_21Cg-34" style="edgeStyle=orthogonalEdgeStyle;rounded=0;orthogonalLoop=1;jettySize=auto;html=1;dashed=1;" edge="1" parent="1" source="ATrVyQSUXd0NA1j_21Cg-12" target="ATrVyQSUXd0NA1j_21Cg-28">
          <mxGeometry relative="1" as="geometry" />
        </mxCell>
        <mxCell id="ATrVyQSUXd0NA1j_21Cg-12" value="Azure Model training" style="image;aspect=fixed;html=1;points=[];align=center;fontSize=12;image=img/lib/azure2/ai_machine_learning/Machine_Learning.svg;" vertex="1" parent="1">
          <mxGeometry x="620" y="240" width="45.18" height="48" as="geometry" />
        </mxCell>
        <mxCell id="ATrVyQSUXd0NA1j_21Cg-14" value="Azure SQL Database" style="image;aspect=fixed;html=1;points=[];align=center;fontSize=12;image=img/lib/azure2/databases/SQL_Database.svg;" vertex="1" parent="1">
          <mxGeometry x="264.59000000000003" y="310" width="48" height="64" as="geometry" />
        </mxCell>
        <mxCell id="ATrVyQSUXd0NA1j_21Cg-20" value="train machine &lt;br&gt;learning models" style="edgeStyle=orthogonalEdgeStyle;rounded=0;orthogonalLoop=1;jettySize=auto;html=1;" edge="1" parent="1" source="ATrVyQSUXd0NA1j_21Cg-16" target="ATrVyQSUXd0NA1j_21Cg-12">
          <mxGeometry relative="1" as="geometry" />
        </mxCell>
        <mxCell id="ATrVyQSUXd0NA1j_21Cg-33" style="edgeStyle=orthogonalEdgeStyle;rounded=0;orthogonalLoop=1;jettySize=auto;html=1;dashed=1;" edge="1" parent="1" source="ATrVyQSUXd0NA1j_21Cg-16" target="ATrVyQSUXd0NA1j_21Cg-28">
          <mxGeometry relative="1" as="geometry">
            <Array as="points">
              <mxPoint x="481" y="480" />
              <mxPoint x="545" y="480" />
            </Array>
          </mxGeometry>
        </mxCell>
        <mxCell id="ATrVyQSUXd0NA1j_21Cg-16" value="Azure Databricks" style="image;aspect=fixed;html=1;points=[];align=center;fontSize=12;image=img/lib/azure2/analytics/Azure_Databricks.svg;" vertex="1" parent="1">
          <mxGeometry x="450" y="320" width="62.8" height="68" as="geometry" />
        </mxCell>
        <mxCell id="ATrVyQSUXd0NA1j_21Cg-35" style="edgeStyle=orthogonalEdgeStyle;rounded=0;orthogonalLoop=1;jettySize=auto;html=1;dashed=1;" edge="1" parent="1" source="ATrVyQSUXd0NA1j_21Cg-22" target="ATrVyQSUXd0NA1j_21Cg-28">
          <mxGeometry relative="1" as="geometry">
            <Array as="points">
              <mxPoint x="1100" y="144" />
              <mxPoint x="1100" y="585" />
            </Array>
          </mxGeometry>
        </mxCell>
        <mxCell id="ATrVyQSUXd0NA1j_21Cg-22" value="predict disease risk, &lt;br&gt;recommend treatments, &lt;br&gt;and &lt;br&gt;forecast outcomes tailored to individual patient needs." style="image;aspect=fixed;html=1;points=[];align=center;fontSize=12;image=img/lib/azure2/general/Preview_Features.svg;" vertex="1" parent="1">
          <mxGeometry x="810" y="110" width="68" height="68" as="geometry" />
        </mxCell>
        <mxCell id="ATrVyQSUXd0NA1j_21Cg-36" style="edgeStyle=orthogonalEdgeStyle;rounded=0;orthogonalLoop=1;jettySize=auto;html=1;dashed=1;" edge="1" parent="1" source="ATrVyQSUXd0NA1j_21Cg-24" target="ATrVyQSUXd0NA1j_21Cg-28">
          <mxGeometry relative="1" as="geometry" />
        </mxCell>
        <mxCell id="ATrVyQSUXd0NA1j_21Cg-37" value="Monitor and log the performance, health, and availability of AI models and &lt;br&gt;applications for proactive monitoring, troubleshooting, and optimization." style="edgeLabel;html=1;align=center;verticalAlign=middle;resizable=0;points=[];" vertex="1" connectable="0" parent="ATrVyQSUXd0NA1j_21Cg-36">
          <mxGeometry x="0.8383" y="-1" relative="1" as="geometry">
            <mxPoint as="offset" />
          </mxGeometry>
        </mxCell>
        <mxCell id="ATrVyQSUXd0NA1j_21Cg-24" value="Azure Cognitive Services" style="image;aspect=fixed;html=1;points=[];align=center;fontSize=12;image=img/lib/azure2/ai_machine_learning/Cognitive_Services.svg;" vertex="1" parent="1">
          <mxGeometry x="878" y="358" width="68" height="48" as="geometry" />
        </mxCell>
        <mxCell id="ATrVyQSUXd0NA1j_21Cg-28" value="Azure Monitor" style="image;aspect=fixed;html=1;points=[];align=center;fontSize=12;image=img/lib/azure2/management_governance/Monitor.svg;" vertex="1" parent="1">
          <mxGeometry x="512.8" y="553" width="64" height="64" as="geometry" />
        </mxCell>
      </root>
    </mxGraphModel>
  </diagram>
</mxfile>
